nColumns=28
nRows=66
DataType=double
version=3
OpenSimVersion=4.1
endheader
time	ground_force_1_vx	ground_force_1_vy	ground_force_1_vz	ground_force_1_px	ground_force_1_py	ground_force_1_pz	ground_force_1_mx	ground_force_1_my	ground_force_1_mz	ground_force_2_vx	ground_force_2_vy	ground_force_2_vz	ground_force_2_px	ground_force_2_py	ground_force_2_pz	ground_force_2_mx	ground_force_2_my	ground_force_2_mz	ground_force_3_vx	ground_force_3_vy	ground_force_3_vz	ground_force_3_px	ground_force_3_py	ground_force_3_pz	ground_force_3_mx	ground_force_3_my	ground_force_3_mz
0	-2.12254	284.168	-35.9111	-0.21778	0.006	-0.40705	0	-0.727285	0	-1.14721	305.662	37.0304	-0.215344	0.006	-0.785572	0	1.55882	0	0	0	0	0	0	0	0	0	0
0.01	-1.93418	284.701	-35.8131	-0.217616	0.006	-0.407181	0	-0.766461	0	-1.39226	305.883	36.9929	-0.215647	0.006	-0.785853	0	1.45106	0	0	0	0	0	0	0	0	0	0
0.02	-1.79062	285.012	-35.7242	-0.217456	0.006	-0.40736	0	-0.805492	0	-1.55188	306.039	37.0007	-0.215949	0.006	-0.786114	0	1.35914	0	0	0	0	0	0	0	0	0	0
0.03	-1.79731	284.916	-35.7246	-0.217495	0.006	-0.407501	0	-0.802641	0	-1.562	306.063	37.0249	-0.2159	0.006	-0.786209	0	1.31893	0	0	0	0	0	0	0	0	0	0
0.04	-1.74844	285.184	-35.8052	-0.21746	0.006	-0.407436	0	-0.808521	0	-1.58884	306.06	36.9972	-0.2158	0.006	-0.786237	0	1.31339	0	0	0	0	0	0	0	0	0	0
0.05	-1.70931	285.19	-35.7956	-0.217369	0.006	-0.407444	0	-0.808582	0	-1.55321	305.973	36.9397	-0.215877	0.006	-0.786106	0	1.34986	0	0	0	0	0	0	0	0	0	0
0.06	-1.69047	285.077	-35.7924	-0.217298	0.006	-0.407473	0	-0.800031	0	-1.45833	305.936	36.9379	-0.216237	0.006	-0.786042	0	1.38997	0	0	0	0	0	0	0	0	0	0
0.07	-1.67	285.104	-35.7613	-0.217241	0.006	-0.40726	0	-0.806682	0	-1.37518	305.861	36.9509	-0.216381	0.006	-0.786196	0	1.39289	0	0	0	0	0	0	0	0	0	0
0.08	-1.62318	284.957	-35.6849	-0.217138	0.006	-0.407259	0	-0.831334	0	-1.21747	305.802	37.0094	-0.216154	0.006	-0.786418	0	1.34752	0	0	0	0	0	0	0	0	0	0
0.09	-1.53857	284.871	-35.6858	-0.216883	0.006	-0.407254	0	-0.834153	0	-1.07205	305.879	37.1673	-0.215938	0.006	-0.786453	0	1.33838	0	0	0	0	0	0	0	0	0	0
0.1	-1.38843	285.082	-35.6671	-0.216578	0.006	-0.40715	0	-0.825196	0	-0.965775	306.23	37.3333	-0.215625	0.006	-0.786317	0	1.34726	0	0	0	0	0	0	0	0	0	0
0.11	-1.23174	285.32	-35.6936	-0.216312	0.006	-0.407104	0	-0.823944	0	-0.913958	306.893	37.5368	-0.215232	0.006	-0.786406	0	1.33811	0	0	0	0	0	0	0	0	0	0
0.12	-1.14808	285.285	-35.7815	-0.215996	0.006	-0.40696	0	-0.833558	0	-0.842241	307.95	37.7322	-0.214849	0.006	-0.786698	0	1.31579	0	0	0	0	0	0	0	0	0	0
0.13	-1.00517	285.231	-35.9015	-0.215295	0.006	-0.406761	0	-0.830507	0	-0.761618	309.049	37.9198	-0.214219	0.006	-0.787027	0	1.28629	0	0	0	0	0	0	0	0	0	0
0.14	-1.05405	284.946	-35.9926	-0.214403	0.006	-0.406527	0	-0.808188	0	-0.775763	309.697	38.117	-0.213502	0.006	-0.787304	0	1.24455	0	0	0	0	0	0	0	0	0	0
0.15	-1.26412	284.101	-35.9854	-0.213401	0.006	-0.406181	0	-0.784824	0	-0.914193	309.876	38.2176	-0.212881	0.006	-0.787559	0	1.21059	0	0	0	0	0	0	0	0	0	0
0.16	-1.43716	283.231	-36.0879	-0.212318	0.006	-0.405771	0	-0.759076	0	-1.16307	309.839	38.2509	-0.211999	0.006	-0.787772	0	1.17327	0	0	0	0	0	0	0	0	0	0
0.17	-1.63252	282.581	-36.3125	-0.211232	0.006	-0.40549	0	-0.723587	0	-1.46717	309.648	38.3752	-0.210992	0.006	-0.787939	0	1.13182	0	0	0	0	0	0	0	0	0	0
0.18	-1.8379	282.176	-36.6616	-0.210111	0.006	-0.405367	0	-0.701486	0	-1.89791	309.816	38.6106	-0.210149	0.006	-0.788148	0	1.11182	0	0	0	0	0	0	0	0	0	0
0.19	-2.08229	282.306	-36.8194	-0.209029	0.006	-0.405253	0	-0.680952	0	-2.42413	310.491	38.8044	-0.209414	0.006	-0.788392	0	1.15201	0	0	0	0	0	0	0	0	0	0
0.2	-2.39864	282.888	-36.8775	-0.208086	0.006	-0.405025	0	-0.63675	0	-2.8399	311.415	38.9649	-0.208533	0.006	-0.788605	0	1.18478	0	0	0	0	0	0	0	0	0	0
0.21	-2.69317	283.639	-37.0607	-0.207147	0.006	-0.404761	0	-0.588406	0	-3.07592	312.614	39.213	-0.207376	0.006	-0.788941	0	1.15915	0	0	0	0	0	0	0	0	0	0
0.22	-2.94293	284.487	-37.3314	-0.206135	0.006	-0.404557	0	-0.559811	0	-3.33307	313.975	39.552	-0.206123	0.006	-0.789352	0	1.11428	0	0	0	0	0	0	0	0	0	0
0.23	-3.18696	285.292	-37.598	-0.204939	0.006	-0.404199	0	-0.527471	0	-3.65521	315.357	40.0491	-0.205128	0.006	-0.789781	0	1.08132	0	0	0	0	0	0	0	0	0	0
0.24	-3.5269	285.44	-37.7432	-0.203818	0.006	-0.403979	0	-0.487919	0	-3.95069	316.14	40.615	-0.204107	0.006	-0.79012	0	1.07861	0	0	0	0	0	0	0	0	0	0
0.25	-3.94443	284.961	-37.7962	-0.202725	0.006	-0.403948	0	-0.447681	0	-4.40609	316.376	41.0064	-0.202857	0.006	-0.790516	0	1.07252	0	0	0	0	0	0	0	0	0	0
0.26	-4.40805	284.345	-37.8895	-0.201644	0.006	-0.403861	0	-0.406594	0	-4.97536	316.359	41.2142	-0.201418	0.006	-0.791134	0	1.06563	0	0	0	0	0	0	0	0	0	0
0.27	-4.98788	283.722	-38.0009	-0.200629	0.006	-0.403731	0	-0.380564	0	-5.55432	316.394	41.3784	-0.200105	0.006	-0.7917	0	1.05771	0	0	0	0	0	0	0	0	0	0
0.28	-5.50198	283.115	-38.1151	-0.199761	0.006	-0.403647	0	-0.353717	0	-6.17322	316.201	41.5287	-0.198943	0.006	-0.792162	0	1.0623	0	0	0	0	0	0	0	0	0	0
0.29	-5.92467	282.755	-38.3589	-0.199013	0.006	-0.403516	0	-0.316661	0	-6.82004	315.284	41.7343	-0.197765	0.006	-0.792492	0	1.0616	0	0	0	0	0	0	0	0	0	0
0.3	-6.32683	282.538	-38.7406	-0.198428	0.006	-0.403292	0	-0.283891	0	-7.4656	314.227	41.9814	-0.196622	0.006	-0.792711	0	1.0545	0	0	0	0	0	0	0	0	0	0
0.31	-6.68488	282.112	-38.9773	-0.198025	0.006	-0.40317	0	-0.297839	0	-8.02499	313.784	42.4122	-0.195541	0.006	-0.793117	0	1.07499	0	0	0	0	0	0	0	0	0	0
0.32	-7.07108	281.62	-39.0379	-0.197743	0.006	-0.403108	0	-0.324701	0	-8.61653	313.274	42.8058	-0.194413	0.006	-0.793442	0	1.10993	0	0	0	0	0	0	0	0	0	0
0.33	-7.51644	281.501	-39.1743	-0.197429	0.006	-0.402942	0	-0.325946	0	-9.39917	312.244	43.1721	-0.193052	0.006	-0.793902	0	1.12369	0	0	0	0	0	0	0	0	0	0
0.34	-7.97636	281.411	-39.3522	-0.197166	0.006	-0.402794	0	-0.349911	0	-10.3355	310.689	43.472	-0.191628	0.006	-0.79449	0	1.11577	0	0	0	0	0	0	0	0	0	0
0.35	-8.50461	280.678	-39.4378	-0.196949	0.006	-0.402887	0	-0.387643	0	-11.5657	308.47	43.6053	-0.190354	0.006	-0.794849	0	1.12714	0	0	0	0	0	0	0	0	0	0
0.36	-8.88655	279.82	-39.4521	-0.196681	0.006	-0.402858	0	-0.422307	0	-13.1417	306.254	43.666	-0.189072	0.006	-0.795001	0	1.14688	0	0	0	0	0	0	0	0	0	0
0.37	-9.10452	278.794	-39.3865	-0.196407	0.006	-0.402618	0	-0.491423	0	-14.847	304.068	43.7297	-0.187989	0.006	-0.795155	0	1.1567	0	0	0	0	0	0	0	0	0	0
0.38	-9.4812	276.878	-39.2724	-0.196158	0.006	-0.402415	0	-0.566524	0	-16.1275	301.775	43.6734	-0.187117	0.006	-0.795341	0	1.15046	0	0	0	0	0	0	0	0	0	0
0.39	-10.0592	274.785	-39.1624	-0.196246	0.006	-0.402259	0	-0.603744	0	-16.7032	299.304	43.4711	-0.186585	0.006	-0.795271	0	1.15338	0	0	0	0	0	0	0	0	0	0
0.4	-10.3827	273.068	-39.0867	-0.196866	0.006	-0.402288	0	-0.607122	0	-17.0283	296.927	43.202	-0.186584	0.006	-0.795166	0	1.19219	0	0	0	0	0	0	0	0	0	0
0.41	-10.1049	271.356	-39.1514	-0.19805	0.006	-0.402492	0	-0.572869	0	-17.3686	295.519	42.8926	-0.186809	0.006	-0.795286	0	1.24195	0	0	0	0	0	0	0	0	0	0
0.42	-9.54808	269.648	-39.2348	-0.199849	0.006	-0.402845	0	-0.545972	0	-17.9263	294.393	42.6069	-0.187161	0.006	-0.79536	0	1.27805	0	0	0	0	0	0	0	0	0	0
0.43	-9.19837	268.26	-39.3188	-0.202119	0.006	-0.403311	0	-0.559281	0	-18.51	291.994	42.3738	-0.18772	0.006	-0.795084	0	1.28069	0	0	0	0	0	0	0	0	0	0
0.44	-9.14754	266.102	-39.1916	-0.204612	0.006	-0.403944	0	-0.552844	0	-18.7471	288.531	42.1494	-0.18846	0.006	-0.794723	0	1.26354	0	0	0	0	0	0	0	0	0	0
0.45	-9.32526	262.223	-38.7777	-0.207141	0.006	-0.404679	0	-0.542366	0	-18.4442	285.133	42.1093	-0.18945	0.006	-0.794677	0	1.23554	0	0	0	0	0	0	0	0	0	0
0.46	-9.43511	256.586	-38.1053	-0.209658	0.006	-0.405325	0	-0.539828	0	-17.6561	281.991	42.3677	-0.190846	0.006	-0.79485	0	1.18877	0	0	0	0	0	0	0	0	0	0
0.47	-9.10115	249.538	-37.487	-0.212068	0.006	-0.40598	0	-0.491163	0	-16.7614	278.599	42.7849	-0.192939	0.006	-0.794671	0	1.12717	0	0	0	0	0	0	0	0	0	0
0.48	-8.21162	241.731	-36.844	-0.214252	0.006	-0.406614	0	-0.42813	0	-15.994	274.812	43.1335	-0.19534	0.006	-0.79413	0	1.05402	0	0	0	0	0	0	0	0	0	0
0.49	-7.24979	233.224	-35.7473	-0.216001	0.006	-0.407156	0	-0.359214	0	-15.0955	269.728	42.8867	-0.19757	0.006	-0.793614	0	0.993862	0	0	0	0	0	0	0	0	0	0
0.5	-6.90145	223.961	-34.2072	-0.217341	0.006	-0.40806	0	-0.287244	0	-14.1287	262.456	41.9712	-0.199598	0.006	-0.793136	0	0.945674	0	0	0	0	0	0	0	0	0	0
0.51	-7.33177	214.489	-32.385	-0.218418	0.006	-0.409272	0	-0.210244	0	-12.7756	253.323	40.4333	-0.202029	0.006	-0.792446	0	0.907554	0	0	0	0	0	0	0	0	0	0
0.52	-7.99453	205.33	-30.1013	-0.219906	0.006	-0.410712	0	-0.163273	0	-10.9977	243.181	38.5617	-0.204968	0.006	-0.791353	0	0.872317	0	0	0	0	0	0	0	0	0	0
0.53	-8.29703	197.21	-27.7819	-0.222152	0.006	-0.412049	0	-0.145213	0	-9.63345	234.03	36.8899	-0.208004	0.006	-0.790344	0	0.87719	0	0	0	0	0	0	0	0	0	0
0.54	-8.18382	191.952	-26.2111	-0.225135	0.006	-0.412963	0	-0.139027	0	-9.27894	226.962	35.5975	-0.21149	0.006	-0.789314	0	0.913238	0	0	0	0	0	0	0	0	0	0
0.55	-7.81717	190.905	-26.0664	-0.228872	0.006	-0.413763	0	-0.111683	0	-9.88177	222.672	34.7831	-0.215278	0.006	-0.788263	0	0.927258	0	0	0	0	0	0	0	0	0	0
0.56	-7.5399	193.586	-27.1764	-0.233363	0.006	-0.414379	0	-0.0764788	0	-10.277	221.326	34.3338	-0.219854	0.006	-0.787327	0	0.967363	0	0	0	0	0	0	0	0	0	0
0.57	-6.99191	196.688	-28.4407	-0.238799	0.006	-0.41501	0	-0.0142524	0	-9.55708	222.093	34.1706	-0.226044	0.006	-0.786471	0	1.05999	0	0	0	0	0	0	0	0	0	0
0.58	-5.31761	199.055	-29.2152	-0.244795	0.006	-0.415479	0	0.0344422	0	-7.85069	225.696	34.5008	-0.233326	0.006	-0.785779	0	1.1675	0	0	0	0	0	0	0	0	0	0
0.59	-2.70516	202.346	-30.3238	-0.251037	0.006	-0.415856	0	0.00624905	0	-5.86821	233.122	35.6969	-0.240748	0.006	-0.785407	0	1.28334	0	0	0	0	0	0	0	0	0	0
0.6	-0.411296	207.946	-32.4898	-0.256901	0.006	-0.415969	0	-0.0460318	0	-4.03181	242.19	37.494	-0.247581	0.006	-0.785071	0	1.41207	0	0	0	0	0	0	0	0	0	0
0.61	1.10147	216.451	-34.9396	-0.262353	0.006	-0.415934	0	-0.0563078	0	-2.13342	249.58	39.3192	-0.253861	0.006	-0.784832	0	1.55808	0	0	0	0	0	0	0	0	0	0
0.62	2.37843	226.344	-36.7752	-0.267395	0.006	-0.416362	0	-0.065265	0	0.192499	253.17	40.9246	-0.259405	0.006	-0.784489	0	1.69973	0	0	0	0	0	0	0	0	0	0
0.63	3.79851	234.186	-37.4155	-0.272	0.006	-0.417163	0	-0.077025	0	2.56814	254.582	42.3891	-0.264323	0.006	-0.784252	0	1.81956	0	0	0	0	0	0	0	0	0	0
0.64	6.13214	238.918	-36.8192	-0.276545	0.006	-0.418146	0	-0.0850605	0	4.36276	257.562	43.6742	-0.268184	0.006	-0.784299	0	1.91327	0	0	0	0	0	0	0	0	0	0
0.65	9.12616	245.113	-36.0045	-0.280474	0.006	-0.419044	0	-0.128054	0	5.59354	263.029	44.9118	-0.271089	0.006	-0.784538	0	1.99201	0	0	0	0	0	0	0	0	0	0
